# Blender 3.4.1
# www.blender.org
mtllib octa.mtl
o Cube
v 0.500006 -0.000000 -0.500006
v -0.500006 -0.000000 -0.500006
v 0.000000 0.500000 0.000000
v 0.000000 -0.500000 0.000000
v 0.500006 -0.000000 0.500006
v -0.500006 -0.000000 0.500006
vn -0.0000 0.7071 -0.7071
vn -0.0000 -0.7071 -0.7071
vn 0.7071 0.7071 -0.0000
vn 0.7071 -0.7071 -0.0000
vn -0.7071 0.7071 -0.0000
vn -0.7071 -0.7071 -0.0000
vn -0.0000 0.7071 0.7071
vn -0.0000 -0.7071 0.7071
vt 0.500000 0.500000
vt 0.500000 0.750000
vt 0.375000 0.625000
vt 0.500000 0.375000
vt 0.500000 0.250000
vt 0.250000 0.500000
vt 0.625000 0.375000
vt 0.625000 0.875000
vt 0.625000 0.125000
vt 0.250000 0.625000
vt 0.500000 0.875000
vt 0.500000 0.000000
vt 0.250000 0.750000
vt 0.500000 0.125000
vt 0.125000 0.625000
s 0
usemtl Material
f 2/4/1 3/7/1 1/1/1
f 4/10/2 2/6/2 1/3/2
f 1/2/3 3/8/3 5/11/3
f 1/3/4 5/13/4 4/10/4
f 2/5/5 6/14/5 3/9/5
f 6/15/6 2/6/6 4/10/6
f 6/14/7 5/12/7 3/9/7
f 4/10/8 5/13/8 6/15/8
