<?xml version="1.0" encoding="UTF-8" standalone="no"?>
<!DOCTYPE svg PUBLIC "-//W3C//DTD SVG 1.1//EN" "http://www.w3.org/Graphics/SVG/1.1/DTD/svg11.dtd">
<svg width="100%" height="100%" viewBox="0 0 1024 1024" version="1.1" xmlns="http://www.w3.org/2000/svg" xmlns:xlink="http://www.w3.org/1999/xlink" xml:space="preserve" xmlns:serif="http://www.serif.com/" style="fill-rule:evenodd;clip-rule:evenodd;stroke-linejoin:round;stroke-miterlimit:2;">
    <g transform="matrix(1.00173,0,0,1.00173,-0.256397,0.178737)">
        <g id="bg">
            <circle cx="511.37" cy="510.936" r="511.114" style="fill:rgb(187,45,70);"/>
        </g>
    </g>
    <g id="Layer1">
        <g transform="matrix(1,0,0,1,0,50)">
            <rect x="183.309" y="409.961" width="678.152" height="242.004" style="fill:rgb(78,78,78);"/>
        </g>
        <g transform="matrix(1,0,0,1,-43.3438,-16.2539)">
            <circle cx="350.844" cy="598.806" r="87.816"/>
        </g>
        <g transform="matrix(1,0,0,1,383.065,-16.2539)">
            <circle cx="350.844" cy="598.806" r="87.816"/>
        </g>
        <g transform="matrix(0.951356,0,0,0.834526,4.19787,96.3111)">
            <path d="M568.241,572.565C568.241,553.532 554.686,538.08 537.991,538.08C521.295,538.08 507.74,553.532 507.74,572.565L507.74,667.037C507.74,686.07 521.295,701.522 537.991,701.522C554.686,701.522 568.241,686.07 568.241,667.037L568.241,572.565Z"/>
        </g>
    </g>
    <g>
        <g transform="matrix(1,0,0,1,0,50)">
            <path d="M728.336,224.736C717.371,226.633 572.837,688.511 584.194,703.41L432.521,703.41C424.471,703.41 417.645,709.309 416.471,717.268L407.416,778.654L275.986,769.275L271.34,702.766C270.79,694.857 264.605,688.504 256.713,687.742C256.713,687.742 158.15,675.82 157.7,675.815C158.88,627.709 104.699,625.17 104.699,625.17L104.699,427.387C86.329,404.633 66.493,375.457 48,346.428C71.531,306.383 100.337,270.599 131.145,237.443C159.725,251.825 187.468,268.118 213.68,285.455C226.8,272.418 241.6,261.753 256.09,250.605C270.351,239.154 286.398,230.759 301.666,220.977C297.116,187.189 294.872,153.925 293.973,119.209C333.289,99.42 375.223,86.299 417.615,76.875C434.574,105.335 450.051,136.154 463.529,166.283C479.526,163.611 495.58,162.621 511.697,162.43L511.697,162.404C511.797,162.404 511.902,162.43 512.002,162.43C512.098,162.43 512.202,162.404 512.314,162.404L512.314,162.43C528.403,162.621 544.47,163.611 560.463,166.283C573.95,136.154 589.436,105.335 606.369,76.875C648.782,86.299 690.711,99.42 730.031,119.209C729.128,153.925 726.885,187.189 722.348,220.977C724.332,222.25 726.33,223.5 728.336,224.736ZM511.994,489.508C495.852,489.508 482.768,501.416 482.768,516.068L482.768,599.658C482.768,614.323 495.852,626.221 511.994,626.221C528.137,626.221 541.248,614.323 541.248,599.658L541.248,516.068C541.248,501.416 528.137,489.508 511.994,489.508ZM298.416,436.398C248.29,436.398 207.629,477.016 207.629,527.15C207.629,577.318 248.29,617.959 298.416,617.959C348.567,617.959 389.215,577.318 389.215,527.15C389.215,477.016 348.567,436.398 298.416,436.398Z" style="fill:white;"/>
        </g>
        <g transform="matrix(1,0,0,1,0,50)">
            <path d="M584.194,703.41C584.194,703.41 543.299,688.793 543.265,638.583C543.234,593.733 593.27,579.725 593.27,579.725C593.27,579.725 547.733,539.048 561.463,485.791C578.727,418.825 651.965,418.991 651.965,418.991C651.965,418.991 594.127,354.009 628.42,286.626C658.166,228.179 728.336,224.736 728.336,224.736C741.74,232.997 755.509,240.645 767.91,250.605C782.421,261.753 797.194,272.418 810.311,285.455C836.523,268.118 864.275,251.825 892.848,237.443C923.655,270.599 952.477,306.383 976,346.428C960.608,371.215 940.517,400.677 919.301,427.387L918.765,625.2C918.765,625.2 866.408,624.012 865.821,675.8L767.287,687.742C759.395,688.508 753.214,694.857 752.66,702.766L748.018,769.275L616.584,778.654L607.529,717.268C606.355,709.309 599.529,703.41 591.482,703.41L584.194,703.41ZM725.594,436.398C675.434,436.398 634.787,477.016 634.787,527.15C634.787,577.318 675.434,617.959 725.594,617.959C775.716,617.959 816.373,577.318 816.373,527.15C816.373,477.016 775.716,436.398 725.594,436.398Z" style="fill:rgb(225,180,17);"/>
        </g>
        <g transform="matrix(1,0,0,1,-47.1581,66.644)">
            <circle cx="463.613" cy="315.009" r="34.314" style="fill:rgb(225,180,17);"/>
        </g>
        <g transform="matrix(0.582316,0,0,0.582316,124.293,176.951)">
            <circle cx="463.613" cy="315.009" r="34.314" style="fill:rgb(225,180,17);"/>
        </g>
        <g transform="matrix(1,0,0,1,9.24669,0.369868)">
            <path d="M172.553,842.764C172.553,842.764 206.763,758.123 188.807,675.709C180.287,636.605 161.704,596.72 113.858,522.2C113.858,522.2 163.276,659.166 166.732,673.903C190.85,776.75 172.553,842.764 172.553,842.764Z" style="fill:rgb(225,180,17);"/>
        </g>
        <g transform="matrix(0.990322,-0.138786,0.138786,0.990322,-106.175,30.5583)">
            <path d="M172.984,843.78C172.984,843.78 206.763,758.123 188.807,675.709C180.287,636.605 161.704,596.72 113.858,522.2C113.858,522.2 163.276,659.166 166.732,673.903C190.85,776.75 172.984,843.78 172.984,843.78Z" style="fill:rgb(225,180,17);"/>
        </g>
        <g transform="matrix(0.961477,-0.274886,0.274886,0.961477,-216.289,76.4735)">
            <path d="M174.192,843.232C174.192,843.232 206.763,758.123 188.807,675.709C180.287,636.605 161.704,596.72 113.858,522.2C113.858,522.2 163.276,659.166 166.732,673.903C190.85,776.75 174.192,843.232 174.192,843.232Z" style="fill:rgb(225,180,17);"/>
        </g>
    </g>
</svg>
